<svg xmlns="http://www.w3.org/2000/svg" enable-background="new 0 0 24 24" viewBox="0 0 24 24"><path fill="#7070BD" d="M10.5,8h7C17.776123,8,18,7.776123,18,7.5S17.776123,7,17.5,7h-7C10.223877,7,10,7.223877,10,7.5S10.223877,8,10.5,8z M17.5,11h-2c-0.276123,0-0.5,0.223877-0.5,0.5s0.223877,0.5,0.5,0.5h2c0.276123,0,0.5-0.223877,0.5-0.5S17.776123,11,17.5,11z M17.5,15h-2c-0.276123,0-0.5,0.223877-0.5,0.5s0.223877,0.5,0.5,0.5h2c0.276123,0,0.5-0.223877,0.5-0.5S17.776123,15,17.5,15z M21.5,3h-15C6.4998169,3,6.4996338,3,6.4993896,3C6.2234497,3.0001831,5.9998169,3.223999,6,3.5V7H2.5009766C2.5007935,7,2.5006104,7,2.5004272,7c-0.276001,0.0001831-0.4995728,0.223999-0.4994507,0.5v11c0.0012817,1.3795166,1.1187744,2.4974365,2.4980469,2.4998169C4.4993896,20.9998169,4.4996338,21,4.5,21H18c2.208252-0.0021973,3.9978027-1.791748,4-4V3.5c0-0.0001831,0-0.0003662,0-0.0006104C21.9998169,3.2234497,21.776001,2.9998169,21.5,3z M6.0009766,18.5c0,0.8284302-0.6715698,1.5-1.5,1.5s-1.5-0.6715698-1.5-1.5V8H6v2.5c0,0.001709,0.0009766,0.0031128,0.0009766,0.0048218V18.5z M21,17c-0.0018311,1.6561279-1.3438721,2.9981689-3,3H6.4884644c0.3167725-0.4188232,0.5119629-0.9345093,0.5125122-1.5v-11c0-0.0001831,0-0.0003662,0-0.0005493C7.0009766,7.4977417,7,7.4963379,7,7.4946289V4h14V17z M10.5,12h2c0.276123,0,0.5-0.223877,0.5-0.5S12.776123,11,12.5,11h-2c-0.276123,0-0.5,0.223877-0.5,0.5S10.223877,12,10.5,12z M10.5,16h2c0.276123,0,0.5-0.223877,0.5-0.5S12.776123,15,12.5,15h-2c-0.276123,0-0.5,0.223877-0.5,0.5S10.223877,16,10.5,16z"/></svg>